<svg width="120" height="80" viewBox="0 0 120 80" fill="none" xmlns="http://www.w3.org/2000/svg">
<rect x="0.75" y="0.75" width="118.5" height="78.5" rx="2.25" stroke="#B6C0C6" stroke-width="1.5"/>
<path d="M78.1123 51H101.888C102.583 51 103 50.4884 103 49.9767V30.0233C103 29.3837 102.444 29 101.888 29H78.1123C77.4171 29 77 29.5116 77 30.0233V49.8488C77 50.4884 77.5562 51 78.1123 51Z" fill="#8796A1"/>
<path d="M48.1123 51H71.8877C72.5829 51 73 50.4884 73 49.9767V30.0233C73 29.3837 72.4438 29 71.8877 29H48.1123C47.4171 29 47 29.5116 47 30.0233V49.8488C47 50.4884 47.5562 51 48.1123 51Z" fill="#8796A1"/>
<path d="M18.1123 51H41.8877C42.5829 51 43 50.4884 43 49.9767V30.0233C43 29.3837 42.4438 29 41.8877 29H18.1123C17.4171 29 17 29.5116 17 30.0233V49.8488C17 50.4884 17.5562 51 18.1123 51Z" fill="#8796A1"/>
<path d="M12.5 36L8.5 40L12.5 44" stroke="#8796A1" stroke-width="1.8" stroke-linecap="round" stroke-linejoin="round"/>
<path d="M107.5 44L111.5 40L107.5 36" stroke="#8796A1" stroke-width="1.8" stroke-linecap="round" stroke-linejoin="round"/>
<circle cx="54" cy="57" r="2" fill="#B6C0C6"/>
<circle cx="60" cy="57" r="2" fill="#8796A1"/>
<circle cx="66" cy="57" r="2" fill="#B6C0C6"/>
</svg>
