<svg width="120" height="80" viewBox="0 0 120 80" fill="none" xmlns="http://www.w3.org/2000/svg">
<rect x="0.75" y="0.75" width="118.5" height="78.5" rx="2.25" stroke="#B6C0C6" stroke-width="1.5"/>
<path d="M77.3846 14H98.6154C99.4231 14 100 14.7619 100 15.5238V36.4762C100 37.3651 99.3077 38 98.6154 38H77.3846C76.5769 38 76 37.2381 76 36.4762V15.5238C76 14.7619 76.6923 14 77.3846 14Z" fill="#8796A1"/>
<path d="M77.3846 42H98.6154C99.4231 42 100 42.7619 100 43.5238V64.4762C100 65.3651 99.3077 66 98.6154 66H77.3846C76.5769 66 76 65.2381 76 64.4762V43.5238C76 42.7619 76.6923 42 77.3846 42Z" fill="#8796A1"/>
<path d="M49.3846 14H70.6154C71.4231 14 72 14.7619 72 15.5238V36.4762C72 37.3651 71.3077 38 70.6154 38H49.3846C48.5769 38 48 37.2381 48 36.4762V15.5238C48 14.7619 48.6923 14 49.3846 14Z" fill="#8796A1"/>
<path d="M49.3846 42H70.6154C71.4231 42 72 42.7619 72 43.5238V64.4762C72 65.3651 71.3077 66 70.6154 66H49.3846C48.5769 66 48 65.2381 48 64.4762V43.5238C48 42.7619 48.6923 42 49.3846 42Z" fill="#8796A1"/>
<path d="M21.3846 14H42.6154C43.4231 14 44 14.7619 44 15.5238V36.4762C44 37.3651 43.3077 38 42.6154 38H21.3846C20.5769 38 20 37.2381 20 36.4762V15.5238C20 14.7619 20.6923 14 21.3846 14Z" fill="#8796A1"/>
<path d="M21.3846 42H42.6154C43.4231 42 44 42.7619 44 43.5238V64.4762C44 65.3651 43.3077 66 42.6154 66H21.3846C20.5769 66 20 65.2381 20 64.4762V43.5238C20 42.7619 20.6923 42 21.3846 42Z" fill="#8796A1"/>
</svg>
