<svg width="120" height="80" viewBox="0 0 120 80" fill="none" xmlns="http://www.w3.org/2000/svg">
<rect x="0.75" y="0.75" width="118.5" height="78.5" rx="2.25" stroke="#B6C0C6" stroke-width="1.5"/>
<path d="M78.5 16H101.5C102.375 16 103 16.6984 103 17.3968V36.6032C103 37.418 102.25 38 101.5 38H78.5C77.625 38 77 37.3016 77 36.6032V17.3968C77 16.6984 77.75 16 78.5 16Z" fill="#8796A1"/>
<path d="M78.5 42H101.5C102.375 42 103 42.6984 103 43.3968V62.6032C103 63.418 102.25 64 101.5 64H78.5C77.625 64 77 63.3016 77 62.6032V43.3968C77 42.6984 77.75 42 78.5 42Z" fill="#8796A1"/>
<rect x="17" y="16" width="56" height="48" rx="1.5" fill="#8796A1"/>
</svg>
