<svg width="120" height="80" viewBox="0 0 120 80" fill="none" xmlns="http://www.w3.org/2000/svg">
<rect x="0.75" y="0.75" width="118.5" height="78.5" rx="2.25" stroke="#B6C0C6" stroke-width="1.5"/>
<path d="M79.1538 16H96.8462C97.5192 16 98 16.6349 98 17.2698V34.7302C98 35.4709 97.4231 36 96.8462 36H79.1538C78.4808 36 78 35.3651 78 34.7302V17.2698C78 16.6349 78.5769 16 79.1538 16Z" fill="#8796A1"/>
<path d="M79.1538 44H96.8462C97.5192 44 98 44.6349 98 45.2698V62.7302C98 63.4709 97.4231 64 96.8462 64H79.1538C78.4808 64 78 63.3651 78 62.7302V45.2698C78 44.6349 78.5769 44 79.1538 44Z" fill="#8796A1"/>
<path d="M51.1538 16H68.8462C69.5192 16 70 16.6349 70 17.2698V34.7302C70 35.4709 69.4231 36 68.8462 36H51.1538C50.4808 36 50 35.3651 50 34.7302V17.2698C50 16.6349 50.5769 16 51.1538 16Z" fill="#8796A1"/>
<path d="M51.1538 44H68.8462C69.5192 44 70 44.6349 70 45.2698V62.7302C70 63.4709 69.4231 64 68.8462 64H51.1538C50.4808 64 50 63.3651 50 62.7302V45.2698C50 44.6349 50.5769 44 51.1538 44Z" fill="#8796A1"/>
<path d="M23.1538 16H40.8462C41.5192 16 42 16.6349 42 17.2698V34.7302C42 35.4709 41.4231 36 40.8462 36H23.1538C22.4808 36 22 35.3651 22 34.7302V17.2698C22 16.6349 22.5769 16 23.1538 16Z" fill="#8796A1"/>
<path d="M23.1538 44H40.8462C41.5192 44 42 44.6349 42 45.2698V62.7302C42 63.4709 41.4231 64 40.8462 64H23.1538C22.4808 64 22 63.3651 22 62.7302V45.2698C22 44.6349 22.5769 44 23.1538 44Z" fill="#8796A1"/>
<path d="M18 40L102 40" stroke="#5D707C"/>
<rect x="18" y="12" width="84" height="56" stroke="#5D707C"/>
<path d="M46 12V68" stroke="#5D707C"/>
<path d="M74 12V68" stroke="#5D707C"/>
</svg>
