<svg width="100" height="100" viewBox="0 0 100 100" fill="none" xmlns="http://www.w3.org/2000/svg">
<mask id="path-1-inside-1_19_2980" fill="white">
<path d="M0 4C0 1.79086 1.79086 0 4 0H96C98.2091 0 100 1.79086 100 4V68H0V4Z"/>
</mask>
<path d="M0 4C0 1.79086 1.79086 0 4 0H96C98.2091 0 100 1.79086 100 4V68H0V4Z" fill="#E3E7E9"/>
<path d="M-1.5 4C-1.5 0.962434 0.962434 -1.5 4 -1.5H96C99.0376 -1.5 101.5 0.962434 101.5 4H98.5C98.5 2.61929 97.3807 1.5 96 1.5H4C2.61929 1.5 1.5 2.61929 1.5 4H-1.5ZM100 68H0H100ZM-1.5 68V4C-1.5 0.962434 0.962434 -1.5 4 -1.5V1.5C2.61929 1.5 1.5 2.61929 1.5 4V68H-1.5ZM96 -1.5C99.0376 -1.5 101.5 0.962434 101.5 4V68H98.5V4C98.5 2.61929 97.3807 1.5 96 1.5V-1.5Z" fill="#B6C0C6" mask="url(#path-1-inside-1_19_2980)"/>
<mask id="path-3-inside-2_19_2980" fill="white">
<path d="M0 68H100V96C100 98.2091 98.2091 100 96 100H4C1.79086 100 0 98.2091 0 96V68Z"/>
</mask>
<path d="M0 68H100V96C100 98.2091 98.2091 100 96 100H4C1.79086 100 0 98.2091 0 96V68Z" fill="white"/>
<path d="M0 68H100H0ZM101.5 96C101.5 99.0376 99.0376 101.5 96 101.5H4C0.962434 101.5 -1.5 99.0376 -1.5 96H1.5C1.5 97.3807 2.61929 98.5 4 98.5H96C97.3807 98.5 98.5 97.3807 98.5 96H101.5ZM4 101.5C0.962434 101.5 -1.5 99.0376 -1.5 96V68H1.5V96C1.5 97.3807 2.61929 98.5 4 98.5V101.5ZM101.5 68V96C101.5 99.0376 99.0376 101.5 96 101.5V98.5C97.3807 98.5 98.5 97.3807 98.5 96V68H101.5Z" fill="#B6C0C6" mask="url(#path-3-inside-2_19_2980)"/>
<g clip-path="url(#clip0_19_2980)">
<path d="M65.2764 17.6157C63.8185 16.1772 61.1488 15 59.3438 15H56.0632C56.0632 18.5772 53.1255 21.4747 49.5 21.4747C45.8745 21.4747 42.9379 18.5772 42.9379 15H39.6573C37.8523 15 35.1815 16.1783 33.7247 17.6157L27 24.2497L34.4993 31.6502L36.3746 29.7998V52H62.6243V29.7998L64.4996 31.6502L71.9989 24.2497L65.2753 17.6157H65.2764Z" fill="#8796A1"/>
</g>
<rect x="20" y="75" width="60" height="4" rx="2" fill="#8796A1"/>
<rect x="34" y="83" width="32" height="9" rx="1" fill="#8796A1"/>
<rect x="38" y="86.5" width="24" height="2" rx="1" fill="white"/>
<rect x="0.75" y="0.75" width="98.5" height="98.5" rx="3.25" stroke="#B6C0C6" stroke-width="1.5"/>
<defs>
<clipPath id="clip0_19_2980">
<rect width="45" height="37" fill="white" transform="translate(27 15)"/>
</clipPath>
</defs>
</svg>
