<svg width="100" height="100" viewBox="0 0 100 100" fill="none" xmlns="http://www.w3.org/2000/svg">
<mask id="path-1-inside-1_19_2978" fill="white">
<path d="M0 4C0 1.79086 1.79086 0 4 0H96C98.2091 0 100 1.79086 100 4V96C100 98.2091 98.2091 100 96 100H4C1.79086 100 0 98.2091 0 96V4Z"/>
</mask>
<path d="M0 4C0 1.79086 1.79086 0 4 0H96C98.2091 0 100 1.79086 100 4V96C100 98.2091 98.2091 100 96 100H4C1.79086 100 0 98.2091 0 96V4Z" fill="#E3E7E9"/>
<path d="M4 1.5H96V-1.5H4V1.5ZM98.5 4V96H101.5V4H98.5ZM96 98.5H4V101.5H96V98.5ZM1.5 96V4H-1.5V96H1.5ZM4 98.5C2.61929 98.5 1.5 97.3807 1.5 96H-1.5C-1.5 99.0376 0.962437 101.5 4 101.5V98.5ZM98.5 96C98.5 97.3807 97.3807 98.5 96 98.5V101.5C99.0376 101.5 101.5 99.0376 101.5 96H98.5ZM96 1.5C97.3807 1.5 98.5 2.61929 98.5 4H101.5C101.5 0.962433 99.0376 -1.5 96 -1.5V1.5ZM4 -1.5C0.962433 -1.5 -1.5 0.962437 -1.5 4H1.5C1.5 2.61929 2.61929 1.5 4 1.5V-1.5Z" fill="#B6C0C6" mask="url(#path-1-inside-1_19_2978)"/>
<g clip-path="url(#clip0_19_2978)">
<path d="M65.2764 34.6157C63.8185 33.1772 61.1488 32 59.3438 32H56.0632C56.0632 35.5772 53.1255 38.4747 49.5 38.4747C45.8745 38.4747 42.9379 35.5772 42.9379 32H39.6573C37.8523 32 35.1815 33.1783 33.7247 34.6157L27 41.2497L34.4993 48.6502L36.3746 46.7998V69H62.6243V46.7998L64.4996 48.6502L71.9989 41.2497L65.2753 34.6157H65.2764Z" fill="#8796A1"/>
</g>
<rect opacity="0.46" width="100" height="100" rx="4" fill="black"/>
<rect x="20" y="42" width="60" height="4" rx="2" fill="white"/>
<rect x="34" y="50" width="32" height="9" rx="1" fill="white"/>
<rect x="38" y="53.5" width="24" height="2" rx="1" fill="#8796A1"/>
<rect x="0.75" y="0.75" width="98.5" height="98.5" rx="3.25" stroke="#B6C0C6" stroke-width="1.5"/>
<defs>
<clipPath id="clip0_19_2978">
<rect width="45" height="37" fill="white" transform="translate(27 32)"/>
</clipPath>
</defs>
</svg>
