<svg width="100" height="100" viewBox="0 0 100 100" fill="none" xmlns="http://www.w3.org/2000/svg">
<mask id="path-1-inside-1_19_2976" fill="white">
<path d="M0 4C0 1.79086 1.79086 0 4 0H50V100H4C1.79086 100 0 98.2091 0 96V4Z"/>
</mask>
<path d="M0 4C0 1.79086 1.79086 0 4 0H50V100H4C1.79086 100 0 98.2091 0 96V4Z" fill="#E3E7E9"/>
<path d="M-1.5 4C-1.5 0.962434 0.962434 -1.5 4 -1.5H50V1.5H4C2.61929 1.5 1.5 2.61929 1.5 4H-1.5ZM50 101.5H4C0.962434 101.5 -1.5 99.0376 -1.5 96H1.5C1.5 97.3807 2.61929 98.5 4 98.5H50V101.5ZM4 101.5C0.962434 101.5 -1.5 99.0376 -1.5 96V4C-1.5 0.962434 0.962434 -1.5 4 -1.5V1.5C2.61929 1.5 1.5 2.61929 1.5 4V96C1.5 97.3807 2.61929 98.5 4 98.5V101.5ZM50 0V100V0Z" fill="#B6C0C6" mask="url(#path-1-inside-1_19_2976)"/>
<mask id="path-3-inside-2_19_2976" fill="white">
<path d="M50 0H96C98.2091 0 100 1.79086 100 4V96C100 98.2091 98.2091 100 96 100H50V0Z"/>
</mask>
<path d="M50 0H96C98.2091 0 100 1.79086 100 4V96C100 98.2091 98.2091 100 96 100H50V0Z" fill="white"/>
<path d="M50 -1.5H96C99.0376 -1.5 101.5 0.962434 101.5 4H98.5C98.5 2.61929 97.3807 1.5 96 1.5H50V-1.5ZM101.5 96C101.5 99.0376 99.0376 101.5 96 101.5H50V98.5H96C97.3807 98.5 98.5 97.3807 98.5 96H101.5ZM50 100V0V100ZM96 -1.5C99.0376 -1.5 101.5 0.962434 101.5 4V96C101.5 99.0376 99.0376 101.5 96 101.5V98.5C97.3807 98.5 98.5 97.3807 98.5 96V4C98.5 2.61929 97.3807 1.5 96 1.5V-1.5Z" fill="#B6C0C6" mask="url(#path-3-inside-2_19_2976)"/>
<g clip-path="url(#clip0_19_2976)">
<path d="M39.1729 36.2622C37.9093 35.0181 35.5956 34 34.0312 34H31.1881C31.1881 37.0938 28.6421 39.5997 25.5 39.5997C22.3579 39.5997 19.8128 37.0938 19.8128 34H16.9697C15.4053 34 13.0906 35.0191 11.8281 36.2622L6 41.9998L12.4994 48.4001L14.1247 46.7998V66H36.8744V46.7998L38.4997 48.4001L44.999 41.9998L39.1719 36.2622H39.1729Z" fill="#8796A1"/>
</g>
<rect x="55" y="36" width="39" height="4" rx="2" fill="#8796A1"/>
<rect x="58" y="48" width="33" height="2" rx="1" fill="#B6C0C6"/>
<rect x="61" y="44" width="28" height="2" rx="1" fill="#B6C0C6"/>
<rect x="62" y="56" width="26" height="9" rx="1" fill="#8796A1"/>
<rect x="65.25" y="59.5" width="19.5" height="2" rx="1" fill="white"/>
<rect x="0.75" y="0.75" width="98.5" height="98.5" rx="3.25" stroke="#B6C0C6" stroke-width="1.5"/>
<defs>
<clipPath id="clip0_19_2976">
<rect width="39" height="32" fill="white" transform="translate(6 34)"/>
</clipPath>
</defs>
</svg>
