<svg width="200" height="42" viewBox="0 0 278 42" fill="none" xmlns="http://www.w3.org/2000/svg">
<g clip-path="url(#clip0_973_1694)">
<path d="M83.8474 7.33091L79.4183 32.9891C78.8074 32.9891 78.1964 33.1418 77.5855 33.1418H75.7528C75.1419 33.1418 74.6837 32.9891 74.3783 32.5309C74.0728 32.0727 73.7674 31.6145 73.6146 30.8509L72.6983 26.7273L71.4764 17.2582L70.4074 26.7273L69.3383 32.8364C68.1164 32.9891 66.8946 32.9891 65.5201 32.9891C65.0619 32.9891 64.6037 32.8364 64.2983 32.3782C63.9928 31.92 63.6874 31.4618 63.5346 30.6982L61.3964 18.9382L59.5637 8.24728V7.78909C59.5637 7.63637 59.5637 7.48364 59.7164 7.33091C59.8692 7.17819 60.1746 7.17818 60.4801 7.17818H64.1455L65.9783 19.2436L67.0474 28.7127H67.3528C67.3528 25.6582 67.6583 22.6036 68.2692 19.2436L69.7964 9.46909C69.7964 9.01091 69.9492 8.70546 70.1019 8.55273C70.2546 8.4 70.4074 8.24728 70.8655 8.24728H73.7674L75.6001 19.2436C76.0583 21.6873 76.3637 24.7418 76.6692 28.7127H76.9746L77.891 19.2436L79.4183 8.24728C79.4183 8.09455 79.4183 7.78909 79.571 7.63637C79.7237 7.48364 79.8764 7.33091 80.3346 7.33091H83.8474Z" fill="#333333"/>
<path d="M85.5274 32.6836C84.7637 32.2255 84.1528 31.3091 83.6946 29.9346C83.2365 28.56 83.0837 26.5746 83.0837 23.8255C83.0837 17.5636 85.0692 14.3564 89.1928 14.3564C90.5674 14.3564 91.6365 14.6618 92.4001 15.12C93.1637 15.7309 93.7746 16.6473 94.2328 18.0218C94.691 19.3964 94.8437 21.2291 94.8437 23.6727C94.8437 27.1855 94.3856 29.6291 93.3165 31.1564C92.4001 32.6836 90.8728 33.4473 88.7346 33.4473C87.5128 33.2945 86.291 33.1418 85.5274 32.6836ZM89.8037 29.6291C89.9565 29.3236 90.1092 28.7127 90.2619 27.7964C90.4146 26.88 90.4146 25.5055 90.4146 23.8255L90.2619 19.8546C90.1092 18.9382 90.1092 18.48 89.8037 18.1746C89.651 17.8691 89.3456 17.7164 88.8874 17.7164C88.4292 17.7164 88.1237 18.1746 87.8183 18.9382C87.5128 19.7018 87.3601 21.3818 87.3601 23.8255L87.5128 27.9491C87.6656 28.8655 87.8183 29.4764 87.971 29.6291C88.1237 29.7818 88.4292 30.0873 88.7346 30.0873C89.3456 29.9346 89.4983 29.7818 89.8037 29.6291Z" fill="#333333"/>
<path d="M98.9673 32.6836C98.2037 32.2255 97.5928 31.3091 97.1346 29.9346C96.6764 28.56 96.5237 26.5746 96.5237 23.8255C96.5237 17.5636 98.5091 14.3564 102.633 14.3564C104.007 14.3564 105.076 14.6618 105.84 15.12C106.604 15.7309 107.215 16.6473 107.673 18.0218C108.131 19.3964 108.284 21.2291 108.284 23.6727C108.284 27.1855 107.825 29.6291 106.756 31.1564C105.84 32.6836 104.313 33.4473 102.175 33.4473C100.953 33.2945 99.731 33.1418 98.9673 32.6836ZM103.244 29.6291C103.396 29.3236 103.549 28.7127 103.702 27.7964C103.855 26.88 103.855 25.5055 103.855 23.8255L103.702 19.8546C103.549 18.9382 103.549 18.48 103.244 18.1746C103.091 17.8691 102.785 17.7164 102.327 17.7164C101.869 17.7164 101.564 18.1746 101.258 18.9382C100.953 19.7018 100.8 21.3818 100.8 23.8255L100.953 27.9491C101.105 28.8655 101.258 29.4764 101.411 29.6291C101.564 29.7818 101.869 30.0873 102.175 30.0873C102.785 29.9346 102.938 29.7818 103.244 29.6291Z" fill="#333333"/>
<path d="M118.058 32.3782C117.142 31.7673 116.531 30.5455 116.073 28.7127C115.615 26.88 115.462 24.4364 115.462 20.9236C115.462 11.6073 117.906 6.87273 122.793 6.87273C124.167 6.87273 125.084 7.02545 125.542 7.48364C126 7.78909 126.153 8.4 126.153 9.01091C126.153 9.77454 126 10.6909 125.542 11.4545C125.018 11.0497 124.372 10.8344 123.709 10.8436C122.487 10.8436 121.571 11.6073 120.807 12.9818C120.044 14.3564 119.738 16.9527 119.738 20.6182C119.738 22.7564 119.891 24.4364 120.044 25.5055C120.196 26.7273 120.502 27.4909 120.96 27.9491C121.418 28.4073 121.876 28.7127 122.64 28.7127C123.862 28.7127 124.778 28.56 125.542 28.1018C125.847 28.8655 126.153 29.6291 126.153 30.5455C126.153 31.4618 125.695 32.0727 124.931 32.5309C124.167 32.9891 123.098 33.2945 121.724 33.2945C120.044 33.2945 118.822 32.9891 118.058 32.3782ZM129.971 32.9891C129.207 32.6836 128.596 32.2255 128.138 31.3091C127.68 30.3927 127.375 29.3236 127.375 27.6436C127.375 25.3527 127.833 23.8255 128.596 22.9091C129.36 21.9927 130.429 21.5345 131.651 21.5345C131.956 21.5345 132.415 21.5345 132.873 21.6873C133.331 21.84 133.636 21.84 133.942 22.1455V19.5491C133.942 19.0909 133.789 18.6327 133.636 18.48C133.331 18.3273 133.026 18.1745 132.415 18.1745C131.804 18.1745 131.04 18.1745 130.124 18.3273C129.36 18.48 128.596 18.6327 127.986 18.9382C127.68 18.1745 127.375 17.4109 127.375 16.6473C127.375 16.3418 127.375 16.1891 127.527 15.8836C127.68 15.5782 127.68 15.4255 127.833 15.2727C128.138 14.9673 128.749 14.8145 129.818 14.5091C130.887 14.2036 131.956 14.2036 133.331 14.2036C135.011 14.2036 136.233 14.5091 136.844 15.2727C137.607 15.8836 137.913 17.1055 137.913 18.7855V20.4655L137.76 32.2255C136.386 32.9891 134.706 33.4473 132.415 33.4473C131.651 33.2945 130.735 33.2945 129.971 32.9891ZM133.942 29.6291V24.8945C133.636 24.7418 133.331 24.5891 133.026 24.5891C132.567 24.5891 132.262 24.7418 132.109 25.2C131.956 25.6582 131.804 26.4218 131.804 27.4909C131.804 28.4073 131.956 29.0182 132.109 29.4764C132.262 29.7818 132.567 30.0873 133.026 30.0873C133.484 30.0873 133.789 29.9345 133.942 29.6291ZM142.953 32.8364C142.342 32.3782 142.036 31.92 141.884 31.1564C141.731 30.3927 141.578 29.4764 141.578 28.2545V18.1745H139.287V15.8836C139.287 15.4255 139.44 15.12 139.44 14.9673C139.593 14.8145 139.746 14.8145 140.051 14.8145H141.426V9.31636C141.426 8.85818 141.578 8.55273 141.731 8.4C141.884 8.24727 142.342 8.09454 142.8 8.09454H145.396V14.6618H148.451V16.9527C148.451 17.4109 148.298 17.7164 148.298 17.8691C148.146 18.0218 147.993 18.0218 147.687 18.0218H145.549V28.1018C145.549 28.7127 145.549 29.1709 145.702 29.4764C145.855 29.7818 146.007 29.9345 146.466 29.9345C147.076 29.9345 147.687 29.7818 148.298 29.4764L148.604 31.4618C148.604 32.8364 147.535 33.4473 145.244 33.4473C144.327 33.2945 143.411 33.1418 142.953 32.8364Z" fill="#333333"/>
<path d="M160.058 28.4073C160.211 29.1709 160.364 30.0873 160.364 31.1564C160.364 31.92 159.905 32.3782 158.836 32.8364C157.92 33.2945 156.545 33.4473 155.171 33.4473C153.338 33.4473 151.964 32.8364 150.894 31.6145C149.978 30.3927 149.367 28.1018 149.367 24.8945C149.367 22.1455 149.673 20.0073 150.284 18.48C150.894 16.9527 151.658 15.8836 152.574 15.4255C153.491 14.8145 154.56 14.6618 155.934 14.6618C158.989 14.6618 160.669 16.6473 160.669 20.6182C160.669 22.7564 160.516 24.4364 160.211 25.8109C158.836 26.1164 156.698 26.2691 153.796 26.2691C153.796 27.4909 154.102 28.4073 154.407 28.8655C154.713 29.3236 155.324 29.6291 156.24 29.6291C157.462 29.4764 158.684 29.0182 160.058 28.4073ZM154.254 19.0909C153.949 19.8545 153.796 21.2291 153.796 22.9091C155.171 22.9091 156.087 22.7564 156.545 22.6036C156.698 22.2982 156.698 21.5345 156.698 20.7709C156.698 19.7018 156.545 18.9382 156.393 18.48C156.24 18.1745 155.934 18.0218 155.476 18.0218C155.018 17.8691 154.56 18.1745 154.254 19.0909Z" fill="#333333"/>
<path d="M175.178 17.7164C174.873 18.0218 174.567 18.0218 174.262 18.0218C174.109 18.0218 173.804 18.0218 173.498 17.8691C174.109 18.7855 174.415 19.8545 174.415 21.2291C174.415 23.2145 173.956 24.7418 173.04 25.8109C172.124 26.7273 170.596 27.3382 168.458 27.3382H167.542C167.236 27.7964 167.084 28.1018 167.084 28.4073C167.084 28.56 167.236 28.7127 167.542 28.8655C167.847 28.8655 168.305 29.0182 168.916 29.0182L170.291 29.1709C171.971 29.4764 173.193 29.9345 173.956 30.5455C174.72 31.1564 175.178 32.2255 175.178 33.6C175.178 35.4327 174.567 37.1127 173.498 38.3345C172.429 39.5564 170.596 40.1673 168.305 40.1673C164.335 40.1673 162.349 38.7927 162.349 36.0436C162.349 34.3636 163.113 32.9891 164.793 31.92C163.571 31.4618 162.807 30.8509 162.807 29.9345C162.807 29.3236 162.96 28.8655 163.418 28.2545C163.724 27.6436 164.335 27.0327 165.251 26.4218C163.724 25.5055 163.113 23.6727 163.113 21.0764C163.113 18.6327 163.571 16.8 164.64 15.7309C165.709 14.6618 167.236 14.2036 169.222 14.2036C169.833 14.2036 170.444 14.3564 171.055 14.5091H175.484C175.789 15.12 175.942 15.7309 175.942 16.4945C175.484 17.1055 175.331 17.5636 175.178 17.7164ZM170.596 33.2945C170.444 32.9891 170.138 32.8364 169.68 32.6836C169.222 32.5309 168.611 32.3782 167.542 32.3782C167.084 32.6836 166.778 33.1418 166.473 33.6C166.167 34.0582 166.015 34.5164 166.015 34.9745C166.015 35.4327 166.167 35.8909 166.473 36.0436C166.778 36.3491 167.389 36.3491 168.153 36.3491C168.916 36.3491 169.527 36.0436 169.985 35.5855C170.444 35.1273 170.596 34.6691 170.596 34.0582C170.749 33.9055 170.749 33.4473 170.596 33.2945ZM169.833 23.52C170.138 22.9091 170.291 21.84 170.291 20.3127C170.291 19.0909 170.138 18.3273 169.985 17.8691C169.68 17.4109 169.375 17.1055 168.764 17.1055C168.153 17.1055 167.847 17.4109 167.542 18.0218C167.236 18.6327 167.084 19.5491 167.084 20.9236C167.084 22.1455 167.236 23.0618 167.389 23.6727C167.542 24.1309 168 24.4364 168.611 24.4364C169.222 24.2836 169.527 24.1309 169.833 23.52ZM178.691 32.6836C177.927 32.2255 177.316 31.3091 176.858 29.9345C176.4 28.56 176.247 26.5746 176.247 23.8255C176.247 17.5636 178.233 14.3564 182.356 14.3564C183.731 14.3564 184.8 14.6618 185.564 15.12C186.327 15.7309 186.938 16.6473 187.396 18.0218C187.855 19.3964 188.007 21.2291 188.007 23.6727C188.007 27.1855 187.549 29.6291 186.48 31.1564C185.564 32.6836 184.036 33.4473 181.898 33.4473C180.524 33.2945 179.455 33.1418 178.691 32.6836ZM182.815 29.6291C182.967 29.3236 183.12 28.7127 183.273 27.7964C183.425 26.88 183.425 25.5055 183.425 23.8255L183.273 19.8545C183.12 18.9382 183.12 18.48 182.815 18.1745C182.662 17.8691 182.356 17.7164 181.898 17.7164C181.44 17.7164 181.135 18.1745 180.829 18.9382C180.524 19.7018 180.371 21.3818 180.371 23.8255L180.524 27.9491C180.676 28.8655 180.829 29.4764 180.982 29.6291C181.053 29.7694 181.163 29.8867 181.298 29.9677C181.433 30.0487 181.588 30.0902 181.745 30.0873C182.356 29.9346 182.662 29.7818 182.815 29.6291ZM190.145 15.8836C191.825 14.8145 193.505 14.2036 195.185 14.2036C196.102 14.2036 196.713 14.3564 197.171 14.6618C197.476 14.9673 197.629 15.4255 197.629 16.0364C197.629 16.8 197.476 17.5636 197.171 18.3273C196.713 18.1746 196.255 18.0218 195.796 18.0218C195.532 17.9981 195.267 18.0511 195.033 18.1745C194.727 18.3273 194.422 18.48 194.269 18.6327V32.0727C194.269 32.3782 194.269 32.5309 194.116 32.5309C193.964 32.6836 193.658 32.6836 192.895 32.6836H190.145V15.8836ZM198.545 39.5564C198.087 39.2509 197.782 38.7927 197.782 38.1818C197.782 37.8764 197.782 37.4182 197.935 36.96C198.087 36.5018 198.087 36.1964 198.24 35.8909C198.393 36.0436 198.851 36.1964 199.309 36.3491C199.767 36.5018 200.225 36.5018 200.836 36.5018C201.295 36.5018 201.753 36.3491 202.058 35.8909C202.364 35.4327 202.516 34.6691 202.669 33.4473L198.698 15.5782V15.12C198.698 14.9673 198.851 14.8145 199.004 14.6618C199.156 14.6618 199.615 14.5091 200.225 14.5091H202.669L203.738 20.9236L204.349 25.2L204.655 28.2545C204.655 27.7964 204.807 26.7273 204.96 25.2L205.418 20.9236L206.182 15.5782C206.182 15.12 206.335 14.8145 206.487 14.8145C206.64 14.6618 206.945 14.6618 207.404 14.5091H210.458L206.335 33.7527C206.029 35.4327 205.571 36.6546 205.113 37.5709C204.655 38.4873 204.196 39.0982 203.585 39.4036C202.975 39.7091 202.058 40.0145 201.142 40.0145C199.92 40.0145 199.004 39.8618 198.545 39.5564ZM218.095 32.6836C217.331 32.2255 216.873 31.6145 216.873 31.0036C216.873 30.5455 217.025 30.0873 217.178 29.6291C217.331 29.1709 217.636 28.56 217.789 28.1018L219.316 29.0182C219.927 29.1709 220.538 29.3236 221.149 29.3236C222.065 29.3236 222.829 29.0182 223.287 28.56C223.745 28.1018 223.898 27.3382 223.898 26.4218C223.898 25.8109 223.745 25.2 223.593 24.5891C223.44 23.9782 222.982 23.3673 222.218 22.4509L218.858 18.0218C218.095 16.9527 217.484 16.0364 217.178 15.2727C216.873 14.5091 216.72 13.5927 216.72 12.6764C216.705 11.911 216.847 11.1506 217.136 10.4416C217.424 9.73262 217.855 9.08993 218.4 8.55273C219.469 7.48364 221.149 7.02546 223.287 7.02546C225.12 7.02546 226.342 7.17819 227.105 7.48364C227.869 7.78909 228.327 8.4 228.327 9.01091C228.327 9.77455 228.022 10.5382 227.411 11.3018C227.258 11.1491 226.8 10.9964 226.189 10.8436C225.578 10.6909 224.967 10.5382 224.356 10.5382C223.44 10.5382 222.676 10.6909 222.218 10.9964C221.76 11.3018 221.455 11.76 221.455 12.3709C221.455 12.9818 221.607 13.44 221.76 13.8982C221.913 14.3564 222.371 14.9673 222.829 15.5782L226.342 20.16C227.258 21.2291 227.716 22.2982 228.022 23.2145C228.327 24.1309 228.48 25.0473 228.48 26.2691C228.48 28.4073 228.022 30.0873 226.953 31.4618C225.884 32.8364 224.204 33.4473 221.76 33.4473C220.08 33.2945 218.858 33.1418 218.095 32.6836ZM230.313 7.78909C230.313 7.17819 230.465 6.72 230.618 6.56728C230.771 6.26182 231.229 6.26182 231.687 6.10909C232.145 6.10909 233.062 5.95637 234.284 5.95637V32.2255C234.284 32.5309 234.284 32.6836 234.131 32.6836C233.978 32.8364 233.673 32.8364 232.909 32.8364H230.16V7.78909H230.313ZM237.491 12.3709C237.185 11.9127 237.033 11.1491 237.033 10.08C237.033 9.16364 237.185 8.55273 237.644 7.94182C238.102 7.33091 238.56 7.17819 239.324 7.17819C240.087 7.17819 240.545 7.33091 240.851 7.78909C241.156 8.24728 241.309 8.85819 241.309 9.92728C241.309 10.8436 241.156 11.6073 240.698 12.2182C240.393 12.8291 239.782 12.9818 239.018 12.9818C238.255 12.9818 237.796 12.8291 237.491 12.3709ZM237.033 16.4945C237.033 15.8836 237.185 15.4255 237.338 15.2727C237.491 14.9673 237.949 14.9673 238.407 14.8145C238.865 14.8145 239.782 14.6618 241.156 14.6618V32.2255C241.156 32.5309 241.156 32.6836 241.004 32.6836C240.851 32.8364 240.545 32.8364 239.782 32.8364H237.033V16.4945ZM246.196 32.8364C245.28 32.3782 244.669 31.6145 244.211 30.3927C243.753 29.1709 243.447 27.3382 243.447 24.8945C243.447 21.3818 243.905 18.6327 244.822 17.1055C245.738 15.4255 246.96 14.6618 248.487 14.6618C249.404 14.6618 250.167 14.8145 250.625 15.2727V7.78909C250.625 7.17819 250.778 6.72 250.931 6.56728C251.084 6.26182 251.542 6.26182 252 6.10909C252.458 6.10909 253.375 5.95637 254.749 5.95637V32.2255C253.069 32.9891 251.236 33.2945 249.404 33.2945C248.029 33.2945 246.96 33.1418 246.196 32.8364ZM250.473 29.4764V18.0218C250.32 17.8691 250.015 17.8691 249.709 17.8691C249.404 17.8691 249.098 18.0218 248.793 18.3273C248.487 18.6327 248.335 19.2436 248.182 20.16C248.029 21.0764 247.876 22.4509 247.876 24.2836C247.876 26.4218 248.029 27.9491 248.182 28.7127C248.335 29.4764 248.793 29.9345 249.251 29.9345L250.473 29.4764Z" fill="#333333"/>
<path d="M267.12 28.4073C267.273 29.1709 267.426 30.0873 267.426 31.1564C267.426 31.92 266.967 32.3782 265.898 32.8364C264.982 33.2945 263.607 33.4473 262.233 33.4473C260.4 33.4473 259.026 32.8364 257.956 31.6145C257.04 30.3927 256.429 28.1018 256.429 24.8945C256.429 22.1455 256.735 20.0073 257.346 18.48C257.956 16.9527 258.72 15.8836 259.636 15.4255C260.553 14.8145 261.622 14.6618 262.996 14.6618C266.051 14.6618 267.731 16.6473 267.731 20.6182C267.731 22.7564 267.578 24.4364 267.273 25.8109C265.898 26.1164 263.76 26.2691 260.858 26.2691C260.858 27.4909 261.164 28.4073 261.469 28.8655C261.775 29.3236 262.386 29.6291 263.302 29.6291C264.524 29.4764 265.746 29.0182 267.12 28.4073ZM261.316 19.0909C261.011 19.8545 260.858 21.2291 260.858 22.9091C262.233 22.9091 263.149 22.7564 263.607 22.6036C263.76 22.2982 263.76 21.5345 263.76 20.7709C263.76 19.7018 263.607 18.9382 263.455 18.48C263.302 18.1745 262.996 18.0218 262.538 18.0218C262.08 17.8691 261.622 18.1745 261.316 19.0909Z" fill="#333333"/>
<path d="M269.869 15.8836C271.549 14.8145 273.229 14.2036 274.909 14.2036C275.826 14.2036 276.436 14.3564 276.895 14.6618C277.2 14.9673 277.353 15.4255 277.353 16.0364C277.353 16.8 277.2 17.5636 276.895 18.3273C276.436 18.1745 275.978 18.0218 275.52 18.0218C275.215 18.0218 275.062 18.0218 274.756 18.1745C274.451 18.3273 274.145 18.48 273.993 18.6327V32.0727C273.993 32.3782 273.993 32.5309 273.84 32.5309C273.687 32.6836 273.382 32.6836 272.618 32.6836H269.869V15.8836Z" fill="#333333"/>
<path d="M31.0037 0.916364L39.704 12.8291H45.36C47.3455 12.8291 49.0255 14.5091 49.0255 16.4945C48.8727 18.48 47.1927 20.16 45.2073 20.16H3.66545C1.68 20.16 0 18.48 0 16.4945C0 14.5091 1.68 12.8291 3.66545 12.8291H9.16884L17.8691 0.916364C18.4801 2.38419e-07 19.8546 -0.152727 20.771 0.458182C21.6873 1.06909 21.8401 2.44364 21.2291 3.36L14.3135 12.8291H34.5593L27.6437 3.36C27.0328 2.44364 27.1855 1.06909 28.1019 0.458182C29.0182 -0.152727 30.3928 2.38419e-07 31.0037 0.916364Z" fill="#C92A5F"/>
<path fill-rule="evenodd" clip-rule="evenodd" d="M9.16364 39.8618L3.81818 20.16H44.9018L39.7091 39.8618C39.4036 41.0836 38.1818 42 36.96 42H11.9127C10.6909 42 9.46909 41.2364 9.16364 39.8618ZM16.9527 23.3673V31.6146C16.9527 31.92 17.2582 32.2255 17.5636 32.2255H26.88C27.1855 32.2255 27.4909 31.92 27.4909 31.6146V23.3673C27.4909 22.9091 27.1855 22.6036 26.88 22.6036H17.5636C17.2582 22.6036 16.9527 23.0618 16.9527 23.3673ZM31.3091 32.2255C31.6145 32.2255 31.92 31.92 31.92 31.6146V23.3673C31.92 22.9091 31.6145 22.6036 31.3091 22.6036H28.8655V32.2255H31.3091Z" fill="#C92A5F"/>
</g>
<defs>
<clipPath id="clip0_973_1694">
<rect width="278" height="42" fill="white"/>
</clipPath>
</defs>
</svg>
