<svg width="84" height="56" viewBox="0 0 80 56" fill="none" xmlns="http://www.w3.org/2000/svg">
<rect x="0.5" y="0.5" width="79" height="55" rx="1.5" stroke="#B6C0C6"/>
<path d="M51.6845 35.4H66.3155C66.7433 35.4 67 35.0419 67 34.6837V20.7163C67 20.2686 66.6578 20 66.3155 20H51.6845C51.2567 20 51 20.3581 51 20.7163V34.5942C51 35.0419 51.3422 35.4 51.6845 35.4Z" fill="#8796A1"/>
<path d="M32.6845 35.4H47.3155C47.7433 35.4 48 35.0419 48 34.6837V20.7163C48 20.2686 47.6578 20 47.3155 20H32.6845C32.2567 20 32 20.3581 32 20.7163V34.5942C32 35.0419 32.3422 35.4 32.6845 35.4Z" fill="#8796A1"/>
<path d="M13.6845 35.4H28.3155C28.7433 35.4 29 35.0419 29 34.6837V20.7163C29 20.2686 28.6578 20 28.3155 20H13.6845C13.2567 20 13 20.3581 13 20.7163V34.5942C13 35.0419 13.3422 35.4 13.6845 35.4Z" fill="#8796A1"/>
<path d="M9.2 25L6 28.2L9.2 31.4" stroke="#8796A1" stroke-width="1.5" stroke-linecap="round" stroke-linejoin="round"/>
<path d="M70.8 31.8L74 28.6L70.8 25.4" stroke="#8796A1" stroke-width="1.5" stroke-linecap="round" stroke-linejoin="round"/>
<circle cx="35.5" cy="40" r="1.5" fill="#B6C0C6"/>
<circle cx="40" cy="40" r="1.5" fill="#8796A1"/>
<circle cx="44.5" cy="40" r="1.5" fill="#B6C0C6"/>
</svg>
