<svg width="84" height="56" viewBox="0 0 80 56" fill="none" xmlns="http://www.w3.org/2000/svg">
<rect x="0.5" y="0.5" width="79" height="55" rx="1.5" stroke="#B6C0C6"/>
<path d="M6 20H11C11.5523 20 12 20.4477 12 21V35C12 35.5523 11.5523 36 11 36H6V20Z" fill="#8796A1"/>
<rect x="15" y="20" width="15" height="16" rx="1" fill="#8796A1"/>
<rect x="33" y="20" width="15" height="16" rx="1" fill="#8796A1"/>
<rect x="51" y="20" width="15" height="16" rx="1" fill="#8796A1"/>
<path d="M69 21C69 20.4477 69.4477 20 70 20H74V36H70C69.4477 36 69 35.5523 69 35V21Z" fill="#8796A1"/>
<path fill-rule="evenodd" clip-rule="evenodd" d="M22.2197 17.2803C22.5126 17.5732 22.9874 17.5732 23.2803 17.2803C23.5732 16.9874 23.5732 16.5126 23.2803 16.2197L22.4922 15.4316H45.75C46.1642 15.4316 46.5 15.0958 46.5 14.6816C46.5 14.2674 46.1642 13.9316 45.75 13.9316H22.6291L23.2803 13.2803C23.5732 12.9874 23.5732 12.5126 23.2803 12.2197C22.9874 11.9268 22.5126 11.9268 22.2197 12.2197L20.2197 14.2197C19.9268 14.5126 19.9268 14.9874 20.2197 15.2803L22.2197 17.2803ZM48 14.6816C48 14.2674 48.3358 13.9316 48.75 13.9316H52.75C53.1642 13.9316 53.5 14.2674 53.5 14.6816C53.5 15.0958 53.1642 15.4316 52.75 15.4316H48.75C48.3358 15.4316 48 15.0958 48 14.6816ZM56.75 13.9316C56.3358 13.9316 56 14.2674 56 14.6816C56 15.0958 56.3358 15.4316 56.75 15.4316H58.75C59.1642 15.4316 59.5 15.0958 59.5 14.6816C59.5 14.2674 59.1642 13.9316 58.75 13.9316H56.75Z" fill="#8796A1"/>
</svg>
